<svg id="Capa_1" enable-background="new 0 0 512 512" height="50" width="45" fill="#464646" viewBox="0 0 512 512"  xmlns="http://www.w3.org/2000/svg" ><path d="m442.171 0h-372.342c-15.489 0-28.089 12.601-28.089 28.089v455.822c0 15.488 12.6 28.089 28.089 28.089h372.343c15.488 0 28.089-12.601 28.089-28.089v-455.822c-.001-15.488-12.601-28.089-28.09-28.089zm-339.342 266h64.639c4.986 44.438 42.785 79.097 88.532 79.097 45.748 0 83.547-34.659 88.533-79.097h64.639v114.58h-306.343zm221.535 0c-4.861 33.377-33.661 59.097-68.365 59.097-34.703 0-63.503-25.72-68.364-59.097zm-136.728-20c4.861-33.377 33.661-59.097 68.364-59.097 34.704 0 63.504 25.72 68.365 59.097zm126.341-226c-4.088 11.139-14.801 19.109-27.339 19.109h-61.276c-12.538 0-23.251-7.97-27.339-19.109zm-136.697 0c4.632 22.299 24.43 39.109 48.082 39.109h61.276c23.652 0 43.45-16.81 48.082-39.109h71.209c1.788 0 3.242 1.455 3.242 3.243v86.401h-191.062c-5.522 0-10 4.477-10 10s4.478 10 10 10h191.063v116.356h-64.639c-4.986-44.438-42.785-79.097-88.533-79.097-45.747 0-83.546 34.659-88.532 79.097h-64.639v-116.356h22.726c5.522 0 10-4.477 10-10s-4.478-10-10-10h-22.726v-86.401c0-1.788 1.454-3.243 3.242-3.243zm-115.54 463.911v-455.822c0-4.46 3.629-8.089 8.089-8.089h13.231c-.149 1.061-.231 2.142-.231 3.243v465.515c0 1.101.082 2.182.231 3.243h-13.231c-4.46-.001-8.089-3.629-8.089-8.09zm136.283 8.089c4.088-11.139 14.801-19.109 27.339-19.109h61.276c12.538 0 23.251 7.97 27.339 19.109zm136.697 0c-4.632-22.299-24.43-39.109-48.082-39.109h-61.276c-23.652 0-43.45 16.809-48.082 39.109h-71.209c-1.788 0-3.242-1.455-3.242-3.243v-88.177h306.343v88.177c0 1.788-1.454 3.243-3.242 3.243zm115.54-8.089c0 4.46-3.629 8.089-8.089 8.089h-13.231c.149-1.06.231-2.142.231-3.243v-465.514c0-1.101-.082-2.182-.231-3.243h13.231c4.46 0 8.089 3.628 8.089 8.089z"/><path d="m167.025 127.96c7.556 5.035 17.598-2.269 15.18-10.984-1.14-4.11-4.88-7.107-9.143-7.319-4.262-.212-8.279 2.419-9.814 6.39-1.671 4.321-.055 9.333 3.777 11.913z"/></svg>