<?xml version="1.0" encoding="iso-8859-1"?>
<!-- Generator: Adobe Illustrator 17.1.0, SVG Export Plug-In . SVG Version: 6.00 Build 0)  -->
<!DOCTYPE svg PUBLIC "-//W3C//DTD SVG 1.0//EN" "http://www.w3.org/TR/2001/REC-SVG-20010904/DTD/svg10.dtd">
<svg version="1.0" xmlns="http://www.w3.org/2000/svg" xmlns:xlink="http://www.w3.org/1999/xlink" x="0px" y="0px" width="110px"
	 height="110px" viewBox="0 0 110 110" style="enable-background:new 0 0 110 110;" xml:space="preserve">
<g id="Artboard">
</g>
<g id="Multicolor">
	<circle style="fill:#6153CC;" cx="55" cy="55" r="55"/>
	<g>
		<rect x="75" y="50.549" style="fill:#0484AB;" width="12" height="29"/>
		<circle style="fill:#FFFFFF;" cx="81" cy="73.549" r="2"/>
		<path style="fill:#F0F1F1;" d="M75,51.549c0,0-11-8-14-22c-1-4-4-5-5-5s-5-1-5,6s0,14,0,14H30.531
			c-0.348,0-0.69,0.091-0.992,0.264l-4.678,2.673c-0.481,0.275-0.827,0.737-0.954,1.277c-0.127,0.54-0.025,1.108,0.282,1.569
			l2.168,3.251c0.398,0.597,0.446,1.362,0.125,2.004l-1.928,3.856c-0.339,0.678-0.266,1.488,0.189,2.094l1.517,2.022
			c0.455,0.606,0.528,1.417,0.189,2.094l-0.956,1.912c-0.306,0.612-0.278,1.337,0.074,1.923l1.962,3.27
			c0.3,0.501,0.367,1.108,0.182,1.661l-0.378,1.133c-0.208,0.623-0.096,1.307,0.297,1.832l1.771,2.362c0.378,0.504,0.97,0.8,1.6,0.8
			h22.789c0.79,0,1.562-0.234,2.219-0.672l3.985-2.656c0.657-0.438,1.429-0.672,2.219-0.672H75V51.549z"/>
		<path style="fill:#FFFFFF;" d="M61,29.549c-1-4-4-5-5-5s-5-1-5,6s0,14,0,14H30.531c-0.348,0-0.69,0.091-0.992,0.264l-4.679,2.673
			c-0.481,0.275-0.827,0.738-0.954,1.277c-0.127,0.54-0.025,1.108,0.282,1.569l2.168,3.251c0.398,0.597,0.445,1.362,0.125,2.004
			l-1.928,3.856c-0.339,0.677-0.266,1.488,0.189,2.094l1.517,2.022c0.455,0.606,0.528,1.417,0.189,2.094l-0.956,1.912
			c-0.306,0.612-0.278,1.337,0.074,1.923l1.962,3.27c0.3,0.5,0.367,1.107,0.182,1.661l-0.377,1.133
			c-0.208,0.623-0.097,1.308,0.297,1.833L29.4,79.75c0.345,0.459,0.871,0.734,1.438,0.781l36.726-36.726
			C64.903,40.196,62.253,35.399,61,29.549z"/>
	</g>
</g>
</svg>
